<svg xmlns="http://www.w3.org/2000/svg" viewBox="0 0 225 149" fill="none">
  <circle cx="30" cy="30" r="2" fill="#F1592A" opacity="0.3"/>
  <circle cx="60" cy="30" r="2" fill="#F1592A" opacity="0.3"/>
  <circle cx="90" cy="30" r="2" fill="#F1592A" opacity="0.3"/>
  <circle cx="120" cy="30" r="2" fill="#F1592A" opacity="0.3"/>
  <circle cx="150" cy="30" r="2" fill="#F1592A" opacity="0.3"/>
  <circle cx="180" cy="30" r="2" fill="#F1592A" opacity="0.3"/>
  <circle cx="210" cy="30" r="2" fill="#F1592A" opacity="0.3"/>
  
  <circle cx="30" cy="60" r="2" fill="#F1592A" opacity="0.3"/>
  <circle cx="60" cy="60" r="2" fill="#F1592A" opacity="0.3"/>
  <circle cx="90" cy="60" r="2" fill="#F1592A" opacity="0.3"/>
  <circle cx="120" cy="60" r="2" fill="#F1592A" opacity="0.3"/>
  <circle cx="150" cy="60" r="2" fill="#F1592A" opacity="0.3"/>
  <circle cx="180" cy="60" r="2" fill="#F1592A" opacity="0.3"/>
  <circle cx="210" cy="60" r="2" fill="#F1592A" opacity="0.3"/>
  
  <circle cx="30" cy="90" r="2" fill="#F1592A" opacity="0.3"/>
  <circle cx="60" cy="90" r="2" fill="#F1592A" opacity="0.3"/>
  <circle cx="90" cy="90" r="2" fill="#F1592A" opacity="0.3"/>
  <circle cx="120" cy="90" r="2" fill="#F1592A" opacity="0.3"/>
  <circle cx="150" cy="90" r="2" fill="#F1592A" opacity="0.3"/>
  <circle cx="180" cy="90" r="2" fill="#F1592A" opacity="0.3"/>
  <circle cx="210" cy="90" r="2" fill="#F1592A" opacity="0.3"/>

  <circle cx="30" cy="120" r="2" fill="#F1592A" opacity="0.3"/>
  <circle cx="60" cy="120" r="2" fill="#F1592A" opacity="0.3"/>
  <circle cx="90" cy="120" r="2" fill="#F1592A" opacity="0.3"/>
  <circle cx="120" cy="120" r="2" fill="#F1592A" opacity="0.3"/>
  <circle cx="150" cy="120" r="2" fill="#F1592A" opacity="0.3"/>
  <circle cx="180" cy="120" r="2" fill="#F1592A" opacity="0.3"/>
  <circle cx="210" cy="120" r="2" fill="#F1592A" opacity="0.3"/>

  <circle cx="180" cy="40" r="60" fill="url(#paint0_linear)" opacity="0.15"/>
  <circle cx="200" cy="80" r="40" fill="url(#paint1_linear)" opacity="0.2"/>

  <defs>
    <linearGradient id="paint0_linear" x1="120" y1="-20" x2="240" y2="100" gradientUnits="userSpaceOnUse">
      <stop stop-color="#F1592A"/>
      <stop offset="1" stop-color="#FAF2F0"/>
    </linearGradient>
    <linearGradient id="paint1_linear" x1="160" y1="40" x2="240" y2="120" gradientUnits="userSpaceOnUse">
      <stop stop-color="#F1592A"/>
      <stop offset="1" stop-color="#FFFFFF"/>
    </linearGradient>
  </defs>
</svg>
