<svg xmlns="http://www.w3.org/2000/svg" viewBox="0 0 48 48" fill="none">
  <rect width="48" height="48" rx="14" fill="#FFF0EC"/>
  <path d="M17 33L21 29M31 19L23 27L19 23" stroke="#F1592A" stroke-width="2.5" stroke-linecap="round" stroke-linejoin="round"/>
  <path d="M35 13C35 13 34 18 31 21C28 24 25 24 25 24C25 24 25 27 22 30C19 33 14 34 14 34C14 34 15 29 18 26C21 23 24 23 24 23C24 23 24 20 27 17C30 14 35 13 35 13Z" stroke="#F1592A" stroke-width="2" stroke-linecap="round" stroke-linejoin="round"/>
</svg>
